<svg width="21" height="20" viewBox="0 0 21 20" fill="none" xmlns="http://www.w3.org/2000/svg">
<path d="M9.5 12.5C9.5 13.88 11.739 15 14.5 15C17.261 15 19.5 13.88 19.5 12.5M1.5 7.5C1.5 8.88 3.739 10 6.5 10C7.626 10 8.665 9.814 9.5 9.5M1.5 11C1.5 12.38 3.739 13.5 6.5 13.5C7.626 13.5 8.664 13.314 9.5 13M14.5 11C11.739 11 9.5 9.88 9.5 8.5C9.5 7.12 11.739 6 14.5 6C17.261 6 19.5 7.12 19.5 8.5C19.5 9.88 17.261 11 14.5 11Z" stroke="#FE8664" stroke-width="1.5" stroke-linecap="round" stroke-linejoin="round"/>
<path d="M1.5 3.5V14.5C1.5 15.88 3.739 17 6.5 17C7.626 17 8.664 16.814 9.5 16.5M9.5 16.5V8.5M9.5 16.5C9.5 17.88 11.739 19 14.5 19C17.261 19 19.5 17.88 19.5 16.5V8.5M11.5 6.5V3.5" stroke="#FE8664" stroke-width="1.5" stroke-linecap="round" stroke-linejoin="round"/>
<path d="M6.5 6C3.739 6 1.5 4.88 1.5 3.5C1.5 2.12 3.739 1 6.5 1C9.261 1 11.5 2.12 11.5 3.5C11.5 4.88 9.261 6 6.5 6Z" stroke="#FE8664" stroke-width="1.5" stroke-linecap="round" stroke-linejoin="round"/>
</svg>
