<svg width="16" height="16" viewBox="0 0 16 16" fill="none" xmlns="http://www.w3.org/2000/svg">
<path d="M2 6.66668H14M4.66667 10H4.67333M7.33333 10H8.66667M2 5.33334C2 4.80291 2.21071 4.2942 2.58579 3.91913C2.96086 3.54406 3.46957 3.33334 4 3.33334H12C12.5304 3.33334 13.0391 3.54406 13.4142 3.91913C13.7893 4.2942 14 4.80291 14 5.33334V10.6667C14 11.1971 13.7893 11.7058 13.4142 12.0809C13.0391 12.456 12.5304 12.6667 12 12.6667H4C3.46957 12.6667 2.96086 12.456 2.58579 12.0809C2.21071 11.7058 2 11.1971 2 10.6667V5.33334Z" stroke="#8F92A1" stroke-width="1.5" stroke-linecap="round" stroke-linejoin="round"/>
</svg>
