<svg width="19" height="18" viewBox="0 0 19 18" fill="none" xmlns="http://www.w3.org/2000/svg">
<path d="M2.91946 8.341H6.42155C8.05962 8.341 8.841 7.56904 8.841 5.90272V2.4477C8.841 0.781381 8.05962 0 6.42155 0H2.91946C1.28138 0 0.5 0.781381 0.5 2.4477V5.90272C0.5 7.56904 1.28138 8.341 2.91946 8.341ZM12.5785 8.341H16.0805C17.7186 8.341 18.5 7.56904 18.5 5.90272V2.4477C18.5 0.781381 17.7186 0 16.0805 0H12.5785C10.9404 0 10.159 0.781381 10.159 2.4477V5.90272C10.159 7.56904 10.9404 8.341 12.5785 8.341ZM2.79707 6.57113C2.42992 6.57113 2.26987 6.40167 2.26987 6.03452V2.30649C2.26987 1.93933 2.42992 1.76987 2.79707 1.76987H6.54393C6.90167 1.76987 7.07113 1.93933 7.07113 2.30649V6.03452C7.07113 6.40167 6.90167 6.57113 6.54393 6.57113H2.79707ZM12.4561 6.57113C12.0889 6.57113 11.9289 6.40167 11.9289 6.03452V2.30649C11.9289 1.93933 12.0889 1.76987 12.4561 1.76987H16.2029C16.5701 1.76987 16.7301 1.93933 16.7301 2.30649V6.03452C16.7301 6.40167 16.5701 6.57113 16.2029 6.57113H12.4561ZM3.76674 5.28138H5.56485C5.71548 5.28138 5.78138 5.2249 5.78138 5.03661V3.29498C5.78138 3.12552 5.71548 3.05962 5.56485 3.05962H3.76674C3.60669 3.05962 3.55962 3.12552 3.55962 3.29498V5.03661C3.55962 5.2249 3.60669 5.28138 3.76674 5.28138ZM13.454 5.28138H15.2521C15.4121 5.28138 15.478 5.2249 15.478 5.03661V3.29498C15.478 3.12552 15.4121 3.05962 15.2521 3.05962H13.454C13.3033 3.05962 13.2469 3.12552 13.2469 3.29498V5.03661C13.2469 5.2249 13.3033 5.28138 13.454 5.28138ZM2.91946 18H6.42155C8.05962 18 8.841 17.228 8.841 15.5617V12.1067C8.841 10.4404 8.05962 9.65899 6.42155 9.65899H2.91946C1.28138 9.65899 0.5 10.4404 0.5 12.1067V15.5617C0.5 17.228 1.28138 18 2.91946 18ZM10.8556 12.3044H12.6538C12.8138 12.3044 12.8797 12.2479 12.8797 12.0596V10.318C12.8797 10.1485 12.8138 10.0826 12.6538 10.0826H10.8556C10.705 10.0826 10.6485 10.1485 10.6485 10.318V12.0596C10.6485 12.2479 10.705 12.3044 10.8556 12.3044ZM15.9676 12.3044H17.7657C17.9257 12.3044 17.9822 12.2479 17.9822 12.0596V10.318C17.9822 10.1485 17.9257 10.0826 17.7657 10.0826H15.9676C15.8169 10.0826 15.7605 10.1485 15.7605 10.318V12.0596C15.7605 12.2479 15.8169 12.3044 15.9676 12.3044ZM2.79707 16.2301C2.42992 16.2301 2.26987 16.0607 2.26987 15.7029V11.9749C2.26987 11.5983 2.42992 11.4289 2.79707 11.4289H6.54393C6.90167 11.4289 7.07113 11.5983 7.07113 11.9749V15.7029C7.07113 16.0607 6.90167 16.2301 6.54393 16.2301H2.79707ZM13.4351 14.8651H15.2333C15.3933 14.8651 15.4592 14.7992 15.4592 14.6203V12.8692C15.4592 12.6998 15.3933 12.6339 15.2333 12.6339H13.4351C13.2845 12.6339 13.228 12.6998 13.228 12.8692V14.6203C13.228 14.7992 13.2845 14.8651 13.4351 14.8651ZM3.76674 14.9404H5.56485C5.71548 14.9404 5.78138 14.8839 5.78138 14.6956V12.954C5.78138 12.7845 5.71548 12.7186 5.56485 12.7186H3.76674C3.60669 12.7186 3.55962 12.7845 3.55962 12.954V14.6956C3.55962 14.8839 3.60669 14.9404 3.76674 14.9404ZM10.8556 17.4163H12.6538C12.8138 17.4163 12.8797 17.3504 12.8797 17.1715V15.4299C12.8797 15.251 12.8138 15.1946 12.6538 15.1946H10.8556C10.705 15.1946 10.6485 15.251 10.6485 15.4299V17.1715C10.6485 17.3504 10.705 17.4163 10.8556 17.4163ZM15.9676 17.4163H17.7657C17.9257 17.4163 17.9822 17.3504 17.9822 17.1715V15.4299C17.9822 15.251 17.9257 15.1946 17.7657 15.1946H15.9676C15.8169 15.1946 15.7605 15.251 15.7605 15.4299V17.1715C15.7605 17.3504 15.8169 17.4163 15.9676 17.4163Z" fill="#FE8664"/>
</svg>
