<svg width="28" height="28" viewBox="0 0 28 28" fill="none" xmlns="http://www.w3.org/2000/svg">
<rect width="28" height="28" rx="14" fill="#EEEEEE"/>
<path d="M9.23515 11.2771C9.41283 11.0997 9.65368 11 9.90481 11C10.1559 11 10.3968 11.0997 10.5745 11.2771L14.0112 14.7139L17.448 11.2771C17.6276 11.1097 17.8652 11.0186 18.1107 11.023C18.3562 11.0273 18.5904 11.1267 18.7641 11.3004C18.9377 11.474 19.0371 11.7082 19.0415 11.9537C19.0458 12.1992 18.9547 12.4368 18.7873 12.6165L14.6809 16.7229C14.5032 16.9003 14.2623 17 14.0112 17C13.7601 17 13.5192 16.9003 13.3415 16.7229L9.23515 12.6165C9.05769 12.4388 8.95801 12.1979 8.95801 11.9468C8.95801 11.6957 9.05769 11.4548 9.23515 11.2771Z" fill="black"/>
</svg>
