<svg width="20" height="20" viewBox="0 0 20 20" fill="none" xmlns="http://www.w3.org/2000/svg">
<path d="M9.8926 6.17554C10.1381 6.17554 10.337 6.37453 10.337 6.61999C10.337 6.86545 10.1381 7.06443 9.8926 7.06443C9.64714 7.06443 9.44815 6.86545 9.44815 6.61999C9.44815 6.37453 9.64714 6.17554 9.8926 6.17554Z" fill="#FF1515"/>
<path d="M9.11079 13.5556H9.99967M9.99967 13.5556H10.8886M9.99967 13.5556V9.11111H9.11079M16.6663 10C16.6663 13.6819 13.6816 16.6667 9.99967 16.6667C6.31778 16.6667 3.33301 13.6819 3.33301 10C3.33301 6.3181 6.31778 3.33334 9.99967 3.33334C13.6816 3.33334 16.6663 6.3181 16.6663 10ZM10.337 6.61999C10.337 6.37453 10.1381 6.17554 9.8926 6.17554C9.64714 6.17554 9.44815 6.37453 9.44815 6.61999C9.44815 6.86545 9.64714 7.06443 9.8926 7.06443C10.1381 7.06443 10.337 6.86545 10.337 6.61999Z" stroke="#FF1515" stroke-linecap="round" stroke-linejoin="round"/>
</svg>
