<svg width="15" height="14" viewBox="0 0 15 14" fill="none" xmlns="http://www.w3.org/2000/svg">
<path d="M7.49988 4.33334V7.00001L8.83321 8.33334M1.5332 6.33335C1.6826 4.86672 2.36671 3.50642 3.45503 2.51199C4.54334 1.51756 5.95967 0.958605 7.43379 0.941767C8.90791 0.92493 10.3366 1.45139 11.4474 2.4207C12.5581 3.39002 13.2731 4.73433 13.456 6.19717C13.6388 7.66 13.2767 9.13896 12.4388 10.3519C11.6008 11.5648 10.3456 12.4267 8.91272 12.7732C7.47981 13.1198 5.96948 12.9267 4.66987 12.2307C3.37026 11.5348 2.37235 10.3847 1.86654 9.00002M1.5332 12.3333V9.00002H4.86654" stroke="#8F92A1" stroke-width="1.5" stroke-linecap="round" stroke-linejoin="round"/>
</svg>
