<svg width="16" height="16" viewBox="0 0 16 16" fill="none" xmlns="http://www.w3.org/2000/svg">
<path d="M7.99988 5.33331V7.99998L9.33321 9.33331M2.0332 7.33332C2.1826 5.86669 2.86671 4.50639 3.95503 3.51196C5.04334 2.51753 6.45967 1.95857 7.93379 1.94174C9.40791 1.9249 10.8366 2.45136 11.9474 3.42067C13.0581 4.38999 13.7731 5.7343 13.956 7.19714C14.1388 8.65997 13.7767 10.1389 12.9388 11.3518C12.1008 12.5647 10.8456 13.4267 9.41272 13.7732C7.97981 14.1198 6.46948 13.9266 5.16987 13.2307C3.87026 12.5348 2.87235 11.3847 2.36654 9.99998M2.0332 13.3333V9.99998H5.36654" stroke="white" stroke-width="1.5" stroke-linecap="round" stroke-linejoin="round"/>
</svg>
