<svg width="17" height="16" viewBox="0 0 17 16" fill="none" xmlns="http://www.w3.org/2000/svg">
<path d="M11.1665 9.99999C9.69317 10.8887 7.30517 10.8887 5.83317 9.99999M13.1665 5.80666L9.61119 3.04132C9.29918 2.79859 8.91516 2.66681 8.51986 2.66681C8.12455 2.66681 7.74053 2.79859 7.42852 3.04132L3.87252 5.80666C3.65882 5.97284 3.48592 6.18567 3.36703 6.42889C3.24814 6.6721 3.1864 6.93927 3.18652 7.20999V12.01C3.18652 12.3636 3.327 12.7027 3.57705 12.9528C3.8271 13.2028 4.16623 13.3433 4.51986 13.3433H12.5199C12.8735 13.3433 13.2126 13.2028 13.4627 12.9528C13.7127 12.7027 13.8532 12.3636 13.8532 12.01V7.20999C13.8532 6.66132 13.5999 6.14332 13.1665 5.80666Z" stroke="#8F92A1" stroke-width="1.5" stroke-linecap="round" stroke-linejoin="round"/>
</svg>
