<svg width="32" height="32" viewBox="0 0 32 32" fill="none" xmlns="http://www.w3.org/2000/svg">
<path d="M15.9968 12H16.004M9.6 14.4V21.2M12.8 14.4V21.2M19.2 14.4V21.2M22.4 14.4V21.2M8 13.256C8 12.2984 8.3856 11.712 9.184 11.2672L12.472 9.4376C14.1944 8.48 15.056 8 16 8C16.944 8 17.8056 8.48 19.528 9.4376L22.816 11.2672C23.6136 11.712 24 12.2984 24 13.256C24 13.5152 24 13.6456 23.972 13.752C23.8232 14.312 23.3152 14.4008 22.8248 14.4008H9.1752C8.6848 14.4008 8.1776 14.3128 8.028 13.752C8 13.6448 8 13.5152 8 13.256ZM21.6 21.2H10.4C9.76348 21.2 9.15303 21.4529 8.70294 21.9029C8.25286 22.353 8 22.9635 8 23.6C8 23.7061 8.04214 23.8078 8.11716 23.8828C8.19217 23.9579 8.29391 24 8.4 24H23.6C23.7061 24 23.8078 23.9579 23.8828 23.8828C23.9579 23.8078 24 23.7061 24 23.6C24 22.9635 23.7471 22.353 23.2971 21.9029C22.847 21.4529 22.2365 21.2 21.6 21.2Z" stroke="black" stroke-width="1.2" stroke-linecap="round" stroke-linejoin="round"/>
</svg>
