<svg width="13" height="14" viewBox="0 0 13 14" fill="none" xmlns="http://www.w3.org/2000/svg">
<path d="M9.1665 8.99999C7.69317 9.88866 5.30517 9.88866 3.83317 8.99999M11.1665 4.80666L7.61119 2.04132C7.29918 1.79859 6.91516 1.66681 6.51986 1.66681C6.12455 1.66681 5.74053 1.79859 5.42852 2.04132L1.87252 4.80666C1.65882 4.97284 1.48592 5.18567 1.36703 5.42889C1.24814 5.6721 1.1864 5.93927 1.18652 6.20999V11.01C1.18652 11.3636 1.327 11.7027 1.57705 11.9528C1.8271 12.2028 2.16623 12.3433 2.51986 12.3433H10.5199C10.8735 12.3433 11.2126 12.2028 11.4627 11.9528C11.7127 11.7027 11.8532 11.3636 11.8532 11.01V6.20999C11.8532 5.66132 11.5999 5.14332 11.1665 4.80666Z" stroke="white" stroke-width="1.5" stroke-linecap="round" stroke-linejoin="round"/>
</svg>
