<svg width="220" height="220" viewBox="0 0 220 220" fill="none" xmlns="http://www.w3.org/2000/svg">
<rect width="220" height="220" rx="110" fill="#FFEEE9"/>
<path opacity="0.2" d="M109.987 102C113.169 102 116.222 100.736 118.472 98.4853C120.722 96.2348 121.987 93.1826 121.987 90C121.987 86.8174 120.722 83.7652 118.472 81.5147C116.222 79.2643 113.169 78 109.987 78C106.804 78 103.752 79.2643 101.501 81.5147C99.251 83.7652 97.9867 86.8174 97.9867 90C97.9867 93.1826 99.251 96.2348 101.501 98.4853C103.752 100.736 106.804 102 109.987 102ZM83.8467 127.976C83.4773 128.967 83.4374 130.052 83.7328 131.068C84.0282 132.084 84.6433 132.977 85.4867 133.616C92.492 139.061 101.114 142.011 109.987 142C119.227 142 127.739 138.864 134.511 133.6C136.231 132.268 136.927 129.988 136.143 127.96C134.112 122.672 130.525 118.124 125.856 114.917C121.187 111.709 115.655 109.993 109.991 109.994C104.326 109.996 98.795 111.715 94.1275 114.924C89.46 118.134 85.8754 122.683 83.8467 127.972" fill="#FE8664"/>
</svg>
