<svg width="16" height="16" viewBox="0 0 16 16" fill="none" xmlns="http://www.w3.org/2000/svg">
<path fill-rule="evenodd" clip-rule="evenodd" d="M7.01973 0.0549997C8.53202 -0.285407 9.62897 1.01433 9.62897 2.29941V13.7006C9.62897 14.9857 8.53202 16.2854 7.01973 15.945C3.38601 15.1274 0.670898 11.8813 0.670898 8C0.670898 4.11871 3.38601 0.872628 7.01973 0.0549997ZM11.4963 4.98113C11.649 4.82846 11.8561 4.74269 12.0721 4.74269C12.288 4.74269 12.4951 4.82846 12.6478 4.98113L15.091 7.42424C15.2436 7.57696 15.3294 7.78406 15.3294 8C15.3294 8.21594 15.2436 8.42304 15.091 8.57576L12.6478 11.0189C12.4943 11.1672 12.2885 11.2493 12.075 11.2474C11.8615 11.2456 11.6572 11.1599 11.5062 11.009C11.3553 10.858 11.2696 10.6537 11.2678 10.4402C11.2659 10.2267 11.348 10.0209 11.4963 9.86735L12.5493 8.81437H5.55712C5.34114 8.81437 5.134 8.72857 4.98128 8.57585C4.82855 8.42312 4.74275 8.21598 4.74275 8C4.74275 7.78402 4.82855 7.57688 4.98128 7.42415C5.134 7.27143 5.34114 7.18563 5.55712 7.18563H12.5493L11.4963 6.13265C11.3437 5.97993 11.2579 5.77283 11.2579 5.55689C11.2579 5.34095 11.3437 5.13384 11.4963 4.98113Z" fill="#FE8664"/>
</svg>
