<svg width="295" height="48" viewBox="0 0 295 48" fill="none" xmlns="http://www.w3.org/2000/svg">
<path d="M61.1738 12.3245H28.5651C25.8637 12.3245 23.6738 14.5144 23.6738 17.2158V36.781C23.6738 39.4824 25.8637 41.6723 28.5651 41.6723H61.1738C63.8752 41.6723 66.0651 39.4824 66.0651 36.781V17.2158C66.0651 14.5144 63.8752 12.3245 61.1738 12.3245Z" stroke="#FE8664" stroke-width="3.00655" stroke-linejoin="round"/>
<path d="M60.7009 12.3245V9.26745C60.7007 8.51766 60.535 7.77716 60.2156 7.0988C59.8962 6.42043 59.4311 5.82091 58.8533 5.34302C58.2756 4.86512 57.5994 4.52063 56.8732 4.33413C56.147 4.14762 55.3886 4.12369 54.652 4.26405L27.8151 8.84456C26.6496 9.06665 25.5982 9.68849 24.8422 10.6028C24.0862 11.5171 23.673 12.6666 23.6738 13.853V18.8463" stroke="#FE8664" stroke-width="3.00655" stroke-linejoin="round"/>
<path d="M56.2819 30.2593C55.637 30.2593 55.0065 30.068 54.4703 29.7097C53.934 29.3514 53.5161 28.8421 53.2693 28.2463C53.0225 27.6504 52.9579 26.9948 53.0837 26.3622C53.2095 25.7297 53.5201 25.1486 53.9761 24.6926C54.4322 24.2366 55.0132 23.926 55.6458 23.8002C56.2783 23.6744 56.934 23.7389 57.5298 23.9857C58.1257 24.2325 58.6349 24.6505 58.9932 25.1867C59.3516 25.723 59.5428 26.3535 59.5428 26.9984C59.5428 27.8632 59.1992 28.6926 58.5877 29.3042C57.9762 29.9157 57.1468 30.2593 56.2819 30.2593Z" fill="#FE8664"/>
<rect x="2.00403" y="21.7959" width="20.0436" height="2.00436" rx="1.00218" fill="#FE8664"/>
<rect x="10.0215" y="15.7828" width="12.0262" height="2.00436" rx="1.00218" fill="#FE8664"/>
<rect x="6.01312" y="27.809" width="16.0349" height="2.00436" rx="1.00218" fill="#FE8664"/>
<rect x="12.027" y="33.8221" width="10.0218" height="2.00436" rx="1.00218" fill="#FE8664"/>
<path d="M99.5542 29.9141C98.3498 30.3698 96.9826 30.5977 95.4526 30.5977C90.4396 30.5977 87.9331 28.1725 87.9331 23.3223C87.9331 18.7324 90.4396 16.4375 95.4526 16.4375C96.9826 16.4375 98.3498 16.6654 99.5542 17.1211V19.4648C98.3498 18.944 97.0477 18.6836 95.6479 18.6836C92.2951 18.6836 90.6187 20.2298 90.6187 23.3223C90.6187 26.6751 92.2951 28.3516 95.6479 28.3516C97.0477 28.3516 98.3498 28.0911 99.5542 27.5703V29.9141ZM105.996 30.4805V16.5352H112.343C115.195 16.5352 116.621 17.7819 116.621 20.2754C116.621 21.9616 115.511 23.3581 113.291 24.4648L117.714 30.5H114.453L110.205 24.416V23.2344C112.679 22.8112 113.916 21.8509 113.916 20.3535C113.916 19.3249 113.336 18.8105 112.177 18.8105H108.632V30.4805H105.996ZM121.724 16.5352H124.507L128.433 23.2637L132.125 16.5352H134.81L129.673 25.6172V30.5H127.085V25.6172L121.724 16.5352ZM139.64 30.5V16.5352H145.89C148.742 16.5352 150.167 17.847 150.167 20.4707C150.167 23.3158 148.218 25.0378 144.318 25.6367L143.947 23.332C146.291 22.9089 147.462 21.9811 147.462 20.5488C147.462 19.39 146.883 18.8105 145.724 18.8105H142.228V30.5H139.64ZM165.017 16.5352V18.7812H161.013V30.5H158.425V18.7812H154.421V16.5352H165.017ZM172.689 23.4785C172.689 26.7272 174.131 28.3516 177.015 28.3516C179.828 28.3516 181.234 26.7272 181.234 23.4785C181.234 20.2819 179.828 18.6836 177.015 18.6836C174.131 18.6836 172.689 20.2819 172.689 23.4785ZM170.003 23.5371C170.003 18.804 172.341 16.4375 177.015 16.4375C181.618 16.4375 183.919 18.804 183.919 23.5371C183.919 28.2441 181.618 30.5977 177.015 30.5977C172.549 30.5977 170.212 28.2441 170.003 23.5371ZM197.642 16.5352H200.269L201.763 26.5645L205.396 16.5352H207.886L211.285 26.1738L212.867 16.5352H215.416L212.789 30.5H210.328L206.49 19.543L202.369 30.5H199.937L197.642 16.5352ZM222.658 30.5H220.001L225.929 16.5352H228.712L234.767 30.5H231.984L230.392 26.6914H225.753L226.642 24.4453H229.455L227.257 19.2012L222.658 30.5ZM243.064 16.5352V28.2539H248.611V30.5H240.476V16.5352H243.064ZM257.65 16.5352V28.2539H263.197V30.5H255.062V16.5352H257.65ZM279.208 16.5352V18.7617H272.216V22.2773H278.876V24.5918H272.187V28.2539H279.345V30.5H269.648V16.5352H279.208ZM294.869 16.5352V18.7812H290.865V30.5H288.277V18.7812H284.273V16.5352H294.869Z" fill="#FE8664"/>
</svg>
