<svg width="19" height="18" viewBox="0 0 19 18" fill="none" xmlns="http://www.w3.org/2000/svg">
<path d="M16.152 17.745H15.922C13.3306 17.4642 10.8408 16.5806 8.65205 15.165C6.61863 13.8691 4.89193 12.1459 3.59205 10.115C2.17353 7.92033 1.28984 5.42339 1.01205 2.825C0.980202 2.5151 1.01165 2.20196 1.10447 1.90458C1.1973 1.60719 1.34957 1.33176 1.55205 1.095C1.74899 0.855075 1.99207 0.657104 2.2669 0.512818C2.54173 0.368531 2.84272 0.280863 3.15205 0.255005H5.75205C6.31516 0.255573 6.85951 0.457472 7.2868 0.824244C7.71409 1.19101 7.99615 1.69848 8.08205 2.25501C8.17709 2.96986 8.35495 3.67124 8.61205 4.34501C8.76849 4.76839 8.80078 5.22764 8.70512 5.66874C8.60945 6.10985 8.38982 6.51446 8.07205 6.835L7.46205 7.445C8.42247 8.96121 9.71076 10.2427 11.232 11.195L11.842 10.595C12.1626 10.2772 12.5672 10.0576 13.0083 9.96194C13.4494 9.86628 13.9087 9.89856 14.332 10.055C15.0066 10.3096 15.7077 10.4874 16.422 10.585C16.9881 10.6701 17.5036 10.9588 17.8718 11.397C18.2401 11.8352 18.4357 12.3928 18.422 12.965V15.365C18.4221 15.9892 18.1748 16.588 17.7344 17.0303C17.2939 17.4725 16.6962 17.7224 16.072 17.725L16.152 17.745ZM5.75205 1.745H3.36205C3.2447 1.75276 3.13014 1.78424 3.02529 1.83752C2.92045 1.8908 2.82749 1.96479 2.75205 2.055C2.67862 2.13952 2.62305 2.23801 2.58868 2.34456C2.55431 2.45111 2.54185 2.56351 2.55205 2.675C2.79563 5.03154 3.58667 7.29851 4.86205 9.295C6.03869 11.1417 7.60537 12.7084 9.45205 13.885C11.4493 15.1748 13.719 15.9828 16.082 16.245C16.2049 16.2513 16.3277 16.2324 16.4429 16.1894C16.5582 16.1464 16.6634 16.0802 16.752 15.995C16.9113 15.8317 17.0009 15.613 17.002 15.385V12.995C17.0065 12.7846 16.9337 12.5798 16.7973 12.4194C16.6609 12.2591 16.4705 12.1543 16.262 12.125C15.4359 12.0141 14.6244 11.8129 13.842 11.525C13.6879 11.4674 13.5206 11.4546 13.3595 11.4883C13.1985 11.5219 13.0502 11.6005 12.932 11.715L11.932 12.715C11.8149 12.8292 11.6641 12.9026 11.5019 12.9242C11.3398 12.9458 11.175 12.9145 11.032 12.835C8.89823 11.6292 7.13201 9.86646 5.92205 7.735C5.83923 7.59297 5.80607 7.42741 5.8278 7.26444C5.84952 7.10147 5.92491 6.95037 6.04205 6.835L7.04205 5.835C7.15673 5.71903 7.23562 5.57251 7.26931 5.41293C7.303 5.25334 7.29006 5.08744 7.23205 4.93501C6.9434 4.15294 6.74217 3.34133 6.63205 2.515C6.60724 2.30027 6.50338 2.10246 6.3407 1.96012C6.17802 1.81778 5.96818 1.74109 5.75205 1.745Z" fill="black" stroke="white" stroke-width="0.5"/>
</svg>
