<svg width="16" height="16" viewBox="0 0 16 16" fill="none" xmlns="http://www.w3.org/2000/svg">
<path fill-rule="evenodd" clip-rule="evenodd" d="M2.79509 6.7894V5.20482C2.79509 3.82442 3.34345 2.50055 4.31954 1.52446C5.29564 0.548363 6.6195 0 7.99991 0C9.38031 0 10.7042 0.548363 11.6803 1.52446C12.6564 2.50055 13.2047 3.82442 13.2047 5.20482V6.7894C14.0645 6.8534 14.6235 7.01532 15.033 7.42477C15.7107 8.10178 15.7107 9.19287 15.7107 11.3735C15.7107 13.5541 15.7107 14.6452 15.033 15.3222C14.356 16 13.2649 16 11.0842 16H4.91557C2.73494 16 1.64386 16 0.966846 15.3222C0.289062 14.6452 0.289063 13.5541 0.289063 11.3735C0.289063 9.19287 0.289062 8.10178 0.966846 7.42477C1.37552 7.01532 1.93533 6.8534 2.79509 6.7894ZM3.95171 5.20482C3.95171 4.13117 4.37822 3.1015 5.1374 2.34231C5.89658 1.58313 6.92626 1.15663 7.99991 1.15663C9.07355 1.15663 10.1032 1.58313 10.8624 2.34231C11.6216 3.1015 12.0481 4.13117 12.0481 5.20482V6.75007C11.7528 6.74699 11.432 6.74699 11.0842 6.74699H4.91557C4.56704 6.74699 4.24704 6.74699 3.95171 6.75007V5.20482ZM4.91557 12.1446C5.12007 12.1446 5.3162 12.0633 5.46081 11.9187C5.60541 11.7741 5.68665 11.578 5.68665 11.3735C5.68665 11.169 5.60541 10.9729 5.46081 10.8283C5.3162 10.6836 5.12007 10.6024 4.91557 10.6024C4.71106 10.6024 4.51494 10.6836 4.37033 10.8283C4.22572 10.9729 4.14448 11.169 4.14448 11.3735C4.14448 11.578 4.22572 11.7741 4.37033 11.9187C4.51494 12.0633 4.71106 12.1446 4.91557 12.1446ZM7.99991 12.1446C8.20441 12.1446 8.40054 12.0633 8.54515 11.9187C8.68975 11.7741 8.77099 11.578 8.77099 11.3735C8.77099 11.169 8.68975 10.9729 8.54515 10.8283C8.40054 10.6836 8.20441 10.6024 7.99991 10.6024C7.7954 10.6024 7.59927 10.6836 7.45467 10.8283C7.31006 10.9729 7.22882 11.169 7.22882 11.3735C7.22882 11.578 7.31006 11.7741 7.45467 11.9187C7.59927 12.0633 7.7954 12.1446 7.99991 12.1446ZM11.8553 11.3735C11.8553 11.578 11.7741 11.7741 11.6295 11.9187C11.4849 12.0633 11.2887 12.1446 11.0842 12.1446C10.8797 12.1446 10.6836 12.0633 10.539 11.9187C10.3944 11.7741 10.3132 11.578 10.3132 11.3735C10.3132 11.169 10.3944 10.9729 10.539 10.8283C10.6836 10.6836 10.8797 10.6024 11.0842 10.6024C11.2887 10.6024 11.4849 10.6836 11.6295 10.8283C11.7741 10.9729 11.8553 11.169 11.8553 11.3735Z" fill="#FE8664"/>
</svg>
