<svg width="20" height="20" viewBox="0 0 20 20" fill="none" xmlns="http://www.w3.org/2000/svg">
<path fill-rule="evenodd" clip-rule="evenodd" d="M2.5 2.49377C2.5 2.03688 2.87263 1.6665 3.3323 1.6665H10.823C11.2826 1.6665 11.6553 2.03688 11.6553 2.49377V12.4209C11.6553 12.8778 11.2826 13.2482 10.823 13.2482H3.3323C2.87263 13.2482 2.5 12.8778 2.5 12.4209V2.49377ZM4.16459 3.32103V11.5937H9.99067V3.32103H4.16459Z" fill="url(#paint0_linear_1011_4888)"/>
<path fill-rule="evenodd" clip-rule="evenodd" d="M13.3486 6.00044C13.4687 5.55943 13.9257 5.2987 14.3694 5.41809L17.7183 6.31922C18.1612 6.43839 18.4235 6.89133 18.3048 7.33185L15.5044 17.7198C15.3854 18.1611 14.929 18.423 14.485 18.3048L8.11046 16.607C7.66646 16.4888 7.40297 16.0352 7.52194 15.5939C7.64091 15.1525 8.09729 14.8906 8.54129 15.0089L14.1119 16.4925L16.482 7.70064L13.9345 7.01513C13.4908 6.89574 13.2285 6.44145 13.3486 6.00044Z" fill="url(#paint1_linear_1011_4888)"/>
<defs>
<linearGradient id="paint0_linear_1011_4888" x1="10.4167" y1="8.29958" x2="10.4167" y2="0.795387" gradientUnits="userSpaceOnUse">
<stop stop-color="#DB9B3A"/>
<stop offset="1" stop-color="#FE8664"/>
</linearGradient>
<linearGradient id="paint1_linear_1011_4888" x1="10.4167" y1="8.29958" x2="10.4167" y2="0.795387" gradientUnits="userSpaceOnUse">
<stop stop-color="#DB9B3A"/>
<stop offset="1" stop-color="#FE8664"/>
</linearGradient>
</defs>
</svg>
