<svg width="6" height="12" viewBox="0 0 6 12" fill="none" xmlns="http://www.w3.org/2000/svg">
<path d="M0.277138 10.7647C0.0996771 10.587 -3.04089e-08 10.3461 -4.13859e-08 10.095C-5.23628e-08 9.84389 0.099677 9.60303 0.277138 9.42535L3.71388 5.98861L0.277137 2.55186C0.109748 2.37222 0.0186196 2.13463 0.0229512 1.88912C0.0272828 1.64362 0.126736 1.40939 0.300358 1.23576C0.473981 1.06214 0.708217 0.962688 0.953718 0.958356C1.19922 0.954025 1.43682 1.04515 1.61646 1.21254L5.72286 5.31895C5.90032 5.49663 6 5.73748 6 5.98861C6 6.23973 5.90032 6.48059 5.72286 6.65827L1.61646 10.7647C1.43878 10.9421 1.19792 11.0418 0.946798 11.0418C0.695674 11.0418 0.454819 10.9421 0.277138 10.7647Z" fill="#BBBBBB"/>
</svg>
