<svg width="17" height="16" viewBox="0 0 17 16" fill="none" xmlns="http://www.w3.org/2000/svg">
<path d="M7.38333 2.878C7.66733 1.70733 9.33267 1.70733 9.61667 2.878C9.65928 3.05387 9.74281 3.21719 9.86047 3.35467C9.97813 3.49215 10.1266 3.5999 10.2938 3.66916C10.4609 3.73843 10.6421 3.76723 10.8225 3.75325C11.0029 3.73926 11.1775 3.68287 11.332 3.58867C12.3607 2.962 13.5387 4.13933 12.912 5.16867C12.8179 5.3231 12.7616 5.49756 12.7477 5.67785C12.7337 5.85814 12.7625 6.03918 12.8317 6.20625C12.9009 6.37333 13.0085 6.52172 13.1458 6.63937C13.2831 6.75702 13.4463 6.8406 13.622 6.88333C14.7927 7.16733 14.7927 8.83267 13.622 9.11667C13.4461 9.15928 13.2828 9.24281 13.1453 9.36047C13.0079 9.47813 12.9001 9.62659 12.8308 9.79377C12.7616 9.96094 12.7328 10.1421 12.7468 10.3225C12.7607 10.5029 12.8171 10.6775 12.9113 10.832C13.538 11.8607 12.3607 13.0387 11.3313 12.412C11.1769 12.3179 11.0024 12.2616 10.8222 12.2477C10.6419 12.2337 10.4608 12.2625 10.2937 12.3317C10.1267 12.4009 9.97828 12.5085 9.86063 12.6458C9.74298 12.7831 9.6594 12.9463 9.61667 13.122C9.33267 14.2927 7.66733 14.2927 7.38333 13.122C7.34072 12.9461 7.25719 12.7828 7.13953 12.6453C7.02187 12.5079 6.87341 12.4001 6.70623 12.3308C6.53906 12.2616 6.35789 12.2328 6.17748 12.2468C5.99706 12.2607 5.8225 12.3171 5.668 12.4113C4.63933 13.038 3.46133 11.8607 4.088 10.8313C4.18207 10.6769 4.23837 10.5024 4.25232 10.3222C4.26628 10.1419 4.2375 9.96082 4.16831 9.79375C4.09913 9.62667 3.99151 9.47828 3.85418 9.36063C3.71686 9.24298 3.55371 9.1594 3.378 9.11667C2.20733 8.83267 2.20733 7.16733 3.378 6.88333C3.55387 6.84072 3.71719 6.75719 3.85467 6.63953C3.99215 6.52187 4.0999 6.37341 4.16916 6.20623C4.23843 6.03906 4.26723 5.85789 4.25325 5.67748C4.23926 5.49706 4.18287 5.3225 4.08867 5.168C3.462 4.13933 4.63933 2.96133 5.66867 3.588C6.33533 3.99333 7.19933 3.63467 7.38333 2.878Z" stroke="#8F92A1" stroke-width="1.5" stroke-linecap="round" stroke-linejoin="round"/>
<path d="M6.5 8C6.5 8.53043 6.71071 9.03914 7.08579 9.41421C7.46086 9.78929 7.96957 10 8.5 10C9.03043 10 9.53914 9.78929 9.91421 9.41421C10.2893 9.03914 10.5 8.53043 10.5 8C10.5 7.46957 10.2893 6.96086 9.91421 6.58579C9.53914 6.21071 9.03043 6 8.5 6C7.96957 6 7.46086 6.21071 7.08579 6.58579C6.71071 6.96086 6.5 7.46957 6.5 8Z" stroke="#8F92A1" stroke-width="1.5" stroke-linecap="round" stroke-linejoin="round"/>
</svg>
