<svg width="18" height="18" viewBox="0 0 18 18" fill="none" xmlns="http://www.w3.org/2000/svg">
<path fill-rule="evenodd" clip-rule="evenodd" d="M17.8272 3.42042C18.5933 1.39132 16.6086 -0.593396 14.5795 0.172725L1.93602 4.94653C-0.760562 5.96468 -0.60955 9.82929 2.15828 10.6339L5.66543 11.6534C5.99405 11.7489 6.251 12.0059 6.34653 12.3345L7.36604 15.8416C8.17064 18.6094 12.0352 18.7605 13.0534 16.0639L17.8272 3.42042ZM13.9412 2.55155L2.64248 6.8176C1.74361 7.15699 1.79396 8.44519 2.71656 8.71339L6.22371 9.73291C6.26372 9.74454 6.30337 9.75697 6.34265 9.77017L13.9412 2.55155ZM7.92909 11.0217C8.07424 11.2535 8.18871 11.5068 8.26703 11.7762L9.28654 15.2833C9.55474 16.2059 10.8429 16.2563 11.1823 15.3574L15.5546 3.77744L7.92909 11.0217Z" fill="#FE8664"/>
</svg>
